<?xml version="1.0" standalone="no"?>
<!DOCTYPE svg PUBLIC "-//W3C//DTD SVG 20010904//EN"
 "http://www.w3.org/TR/2001/REC-SVG-20010904/DTD/svg10.dtd">
<svg version="1.0" xmlns="http://www.w3.org/2000/svg"
 width="265.000000pt" height="265.000000pt" viewBox="0 0 265.000000 265.000000"
 preserveAspectRatio="xMidYMid meet">
<metadata>
Created by potrace 1.11, written by Peter Selinger 2001-2013
</metadata>
<g transform="translate(0.000000,265.000000) scale(0.100000,-0.100000)"
fill="#000000" stroke="none">
<path d="M220 2641 c-76 -24 -138 -84 -165 -162 -23 -64 -22 -2245 0 -2310 21
-60 56 -102 112 -135 l48 -29 1100 0 1100 0 49 25 c27 14 61 40 77 59 62 75
59 18 59 1231 0 1198 2 1162 -54 1234 -14 19 -47 47 -73 62 l-48 29 -1090 2
c-600 1 -1101 -2 -1115 -6z"/>
</g>
</svg>
